<svg version="1.1" xmlns="http://www.w3.org/2000/svg" xmlns:xlink="http://www.w3.org/1999/xlink" width="300" height="343"><defs/><g><g transform="translate(-134,-54) scale(1,1)"><rect fill="#C0C0C0" stroke="none" x="151" y="71" width="279" height="107" opacity="0.2"/></g><g transform="translate(-134,-54) scale(1,1)"><rect fill="#ffffff" stroke="none" x="144" y="64" width="279" height="107"/></g><g transform="translate(-134,-54) scale(1,1)"><path fill="none" stroke="#000000" d="M 144 64 L 423 64 L 423 171 L 144 171 L 144 64 Z Z" stroke-miterlimit="10"/></g><g transform="translate(-134,-54) scale(1,1)"><rect fill="#ffffff" stroke="none" x="144" y="64" width="279" height="107"/></g><g transform="translate(-134,-54) scale(1,1)"><path fill="none" stroke="#000000" d="M 144 64 L 423 64 L 423 171 L 144 171 L 144 64 Z Z" stroke-miterlimit="10"/></g><g transform="translate(-134,-54) scale(1,1)"><path fill="none" stroke="#000000" d="M 144 89 L 423 89" stroke-miterlimit="10"/></g><g transform="translate(-134,-54) scale(1,1)"><g><path fill="none" stroke="none"/><text fill="#000000" stroke="none" font-family="Arial" font-size="13px" font-style="normal" font-weight="bold" text-decoration="none" x="253.155029296875" y="83.5">JavaScript</text><path fill="none" stroke="#000000" d="M 316.380859375 83.5 L 250.619140625 83.5" stroke-miterlimit="10"/></g></g><g transform="translate(-134,-54) scale(1,1)"><g><path fill="none" stroke="none"/><text fill="#000000" stroke="none" font-family="Arial" font-size="13px" font-style="normal" font-weight="normal" text-decoration="none" x="149" y="106.5">-Very loose</text></g></g><g transform="translate(-134,-54) scale(1,1)"><g><path fill="none" stroke="none"/><text fill="#000000" stroke="none" font-family="Arial" font-size="13px" font-style="normal" font-weight="normal" text-decoration="none" x="149" y="121.5">-Structural</text></g></g><g transform="translate(-134,-54) scale(1,1)"><g><path fill="none" stroke="none"/><text fill="#000000" stroke="none" font-family="Arial" font-size="13px" font-style="normal" font-weight="normal" text-decoration="none" x="149" y="136.5">-Dynamic</text></g></g><g transform="translate(-134,-54) scale(1,1)"><g><path fill="none" stroke="none"/><text fill="#000000" stroke="none" font-family="Arial" font-size="13px" font-style="normal" font-weight="normal" text-decoration="none" x="149" y="151.5">-Free attributes</text></g></g><g transform="translate(-134,-54) scale(1,1)"><g><path fill="none" stroke="none"/><text fill="#000000" stroke="none" font-family="Arial" font-size="13px" font-style="normal" font-weight="normal" text-decoration="none" x="149" y="166.5">-Strong</text></g></g><g transform="translate(-134,-54) scale(1,1)"><rect fill="#C0C0C0" stroke="none" x="151" y="180" width="280" height="107" opacity="0.2"/></g><g transform="translate(-134,-54) scale(1,1)"><rect fill="#ffffff" stroke="none" x="144" y="173" width="280" height="107"/></g><g transform="translate(-134,-54) scale(1,1)"><path fill="none" stroke="#000000" d="M 144 173 L 424 173 L 424 280 L 144 280 L 144 173 Z Z" stroke-miterlimit="10"/></g><g transform="translate(-134,-54) scale(1,1)"><rect fill="#ffffff" stroke="none" x="144" y="173" width="280" height="107"/></g><g transform="translate(-134,-54) scale(1,1)"><path fill="none" stroke="#000000" d="M 144 173 L 424 173 L 424 280 L 144 280 L 144 173 Z Z" stroke-miterlimit="10"/></g><g transform="translate(-134,-54) scale(1,1)"><path fill="none" stroke="#000000" d="M 144 198 L 424 198" stroke-miterlimit="10"/></g><g transform="translate(-134,-54) scale(1,1)"><g><path fill="none" stroke="none"/><text fill="#000000" stroke="none" font-family="Arial" font-size="13px" font-style="normal" font-weight="bold" text-decoration="none" x="263.763671875" y="192.5">Python</text><path fill="none" stroke="#000000" d="M 306.0263671875 192.5 L 261.9736328125 192.5" stroke-miterlimit="10"/></g></g><g transform="translate(-134,-54) scale(1,1)"><g><path fill="none" stroke="none"/><text fill="#000000" stroke="none" font-family="Arial" font-size="13px" font-style="normal" font-weight="normal" text-decoration="none" x="149" y="215.5">-Quite strict</text></g></g><g transform="translate(-134,-54) scale(1,1)"><g><path fill="none" stroke="none"/><text fill="#000000" stroke="none" font-family="Arial" font-size="13px" font-style="normal" font-weight="normal" text-decoration="none" x="149" y="230.5">-Structural</text></g></g><g transform="translate(-134,-54) scale(1,1)"><g><path fill="none" stroke="none"/><text fill="#000000" stroke="none" font-family="Arial" font-size="13px" font-style="normal" font-weight="normal" text-decoration="none" x="149" y="245.5">-Dynamic</text></g></g><g transform="translate(-134,-54) scale(1,1)"><g><path fill="none" stroke="none"/><text fill="#000000" stroke="none" font-family="Arial" font-size="13px" font-style="normal" font-weight="normal" text-decoration="none" x="149" y="260.5">-Free attributes</text></g></g><g transform="translate(-134,-54) scale(1,1)"><g><path fill="none" stroke="none"/><text fill="#000000" stroke="none" font-family="Arial" font-size="13px" font-style="normal" font-weight="normal" text-decoration="none" x="149" y="275.5">-Strong</text></g></g><g transform="translate(-134,-54) scale(1,1)"><rect fill="#C0C0C0" stroke="none" x="151" y="287" width="280" height="107" opacity="0.2"/></g><g transform="translate(-134,-54) scale(1,1)"><rect fill="#ffffff" stroke="none" x="144" y="280" width="280" height="107"/></g><g transform="translate(-134,-54) scale(1,1)"><path fill="none" stroke="#000000" d="M 144 280 L 424 280 L 424 387 L 144 387 L 144 280 Z Z" stroke-miterlimit="10"/></g><g transform="translate(-134,-54) scale(1,1)"><rect fill="#ffffff" stroke="none" x="144" y="280" width="280" height="107"/></g><g transform="translate(-134,-54) scale(1,1)"><path fill="none" stroke="#000000" d="M 144 280 L 424 280 L 424 387 L 144 387 L 144 280 Z Z" stroke-miterlimit="10"/></g><g transform="translate(-134,-54) scale(1,1)"><path fill="none" stroke="#000000" d="M 144 305 L 424 305" stroke-miterlimit="10"/></g><g transform="translate(-134,-54) scale(1,1)"><g><path fill="none" stroke="none"/><text fill="#000000" stroke="none" font-family="Arial" font-size="13px" font-style="normal" font-weight="bold" text-decoration="none" x="242.44189453125" y="299.5">SQL database</text><path fill="none" stroke="#000000" d="M 327.34814453125 299.5 L 240.65185546875 299.5" stroke-miterlimit="10"/></g></g><g transform="translate(-134,-54) scale(1,1)"><g><path fill="none" stroke="none"/><text fill="#000000" stroke="none" font-family="Arial" font-size="13px" font-style="normal" font-weight="normal" text-decoration="none" x="149" y="322.5">+Loose</text></g></g><g transform="translate(-134,-54) scale(1,1)"><g><path fill="none" stroke="none"/><text fill="#000000" stroke="none" font-family="Arial" font-size="13px" font-style="normal" font-weight="normal" text-decoration="none" x="149" y="337.5">+Semantic</text></g></g><g transform="translate(-134,-54) scale(1,1)"><g><path fill="none" stroke="none"/><text fill="#000000" stroke="none" font-family="Arial" font-size="13px" font-style="normal" font-weight="normal" text-decoration="none" x="149" y="352.5">+Static</text></g></g><g transform="translate(-134,-54) scale(1,1)"><g><path fill="none" stroke="none"/><text fill="#000000" stroke="none" font-family="Arial" font-size="13px" font-style="normal" font-weight="normal" text-decoration="none" x="149" y="367.5">+Fixed attributes</text></g></g><g transform="translate(-134,-54) scale(1,1)"><g><path fill="none" stroke="none"/><text fill="#000000" stroke="none" font-family="Arial" font-size="13px" font-style="normal" font-weight="normal" text-decoration="none" x="149" y="382.5">+Weak</text></g></g></g></svg>